<svg width="11" height="18" viewBox="0 0 11 18" fill="none" xmlns="http://www.w3.org/2000/svg">
<path d="M5.11886 17.3085C5.11886 17.3168 5.11058 17.325 5.11058 17.3333H5.10229C5.10229 17.3168 5.08573 17.3085 5.07744 17.2919C4.56385 16.5712 4.05026 15.8423 3.53667 15.1216C3.0148 14.3843 2.48464 13.6388 1.96277 12.9015C1.45746 12.1891 0.943871 11.4685 0.438565 10.7561C0.306026 10.5655 0.173487 10.3833 0.0409473 10.1928C0.0326636 10.1762 0.0243799 10.1679 0.0078125 10.1431C0.0326636 10.1431 0.049231 10.1596 0.0575147 10.1679C0.778197 10.5904 1.4906 11.0129 2.21128 11.4353C3.03965 11.9241 3.85974 12.4128 4.68811 12.9015L5.11058 13.1501C5.12714 13.1666 5.12714 13.1832 5.12714 13.1998V17.1925C5.12714 17.2339 5.12714 17.2753 5.11886 17.3085Z" fill="#757575"/>
<path d="M10.1883 10.1431H10.1965C10.1965 10.1596 10.18 10.1762 10.1717 10.1928C8.6475 12.3382 7.12329 14.492 5.59909 16.6375C5.4417 16.8612 5.27603 17.0848 5.11864 17.3085C5.11035 17.3002 5.11035 17.2919 5.11035 17.2836V17.2339V13.2163V13.1418C5.45827 12.9347 5.7979 12.7359 6.14582 12.5288C7.48778 11.7335 8.82974 10.9466 10.1634 10.1514C10.1717 10.1596 10.18 10.1514 10.1883 10.1431Z" fill="#757575"/>
<path d="M5.11984 0.691355V0.699639C5.12812 0.741057 5.12812 0.79076 5.12812 0.840462V6.81302C5.11984 6.84615 5.09499 6.85443 5.07014 6.871C4.89618 6.95384 4.7305 7.02839 4.55655 7.10295C4.31632 7.21063 4.06781 7.3266 3.82758 7.43429L2.95779 7.83191C2.71756 7.9396 2.47733 8.04729 2.24539 8.15498C1.96374 8.28752 1.67381 8.41177 1.39217 8.54431C1.15194 8.652 0.911713 8.76797 0.663202 8.87566C0.464393 8.96678 0.265584 9.04962 0.0750587 9.14074C0.0584913 9.14902 0.0419239 9.1573 0.0253565 9.1573C0.0170728 9.1573 0.0170728 9.1573 0.00878906 9.14902L0.232449 8.77625C0.663202 8.06386 1.08567 7.35974 1.51642 6.64734C1.97203 5.88524 2.43592 5.12314 2.89152 4.36104C3.31399 3.65692 3.74474 2.95281 4.16721 2.24869C4.47371 1.7351 4.78849 1.22151 5.09499 0.707922C5.10327 0.691355 5.11155 0.683071 5.11155 0.666504H5.11984C5.11155 0.674788 5.11984 0.683071 5.11984 0.691355Z" fill="#757575"/>
<path d="M10.2053 9.14913L10.2136 9.15741L8.99588 9.8781L5.16881 12.1395C5.15224 12.1478 5.13567 12.1561 5.12739 12.1644C5.10254 12.1644 5.10254 12.1395 5.10254 12.1313V12.0567V6.93738C5.10254 6.91253 5.10254 6.87939 5.11082 6.85454C5.11911 6.82141 5.14396 6.82969 5.16881 6.83798C5.2765 6.88768 5.39247 6.93738 5.50016 6.98708C5.82322 7.13619 6.14629 7.2853 6.46935 7.42612C6.751 7.55037 7.02436 7.68291 7.306 7.80717C7.58765 7.93142 7.8693 8.06396 8.15094 8.18822C8.39117 8.29591 8.63968 8.41188 8.87991 8.51957C9.12014 8.62726 9.36865 8.74323 9.60887 8.85092C9.7994 8.93375 9.98992 9.02487 10.1804 9.10771C10.1804 9.13256 10.1887 9.14085 10.2053 9.14913Z" fill="#757575"/>
<path d="M0 9.1656V9.15731C0.265079 9.04134 0.521873 8.91708 0.786952 8.80111C1.12658 8.64372 1.46622 8.49462 1.80585 8.33723C2.06264 8.22125 2.32772 8.097 2.58452 7.98103C2.96557 7.80707 3.33833 7.64139 3.71938 7.46744C3.97618 7.35146 4.23297 7.23549 4.49805 7.11124C4.68029 7.0284 4.87082 6.94556 5.05306 6.86272C5.06963 6.85444 5.09448 6.84616 5.10276 6.82959C5.11105 6.82959 5.11105 6.83787 5.10276 6.84616V12.1063C5.10276 12.1312 5.09448 12.156 5.11105 12.1726C5.09448 12.1974 5.07791 12.1726 5.06963 12.1643C4.99507 12.1229 4.92052 12.0815 4.84597 12.0318C3.24721 11.0874 1.64017 10.1348 0.0414185 9.19045C0.0331348 9.18216 0.0165674 9.17388 0 9.1656Z" fill="#757575"/>
<path d="M5.11129 6.84622V6.82965V6.77995V0.765977C5.11129 0.741126 5.10301 0.724558 5.11958 0.699707C6.80117 3.49132 8.48276 6.27464 10.1561 9.06625C10.1726 9.0911 10.1975 9.12424 10.2058 9.15737C10.0898 9.11596 9.98211 9.05797 9.87443 9.00827C9.74189 8.95028 9.60106 8.88401 9.46852 8.82603C9.38569 8.78461 9.29457 8.75147 9.21173 8.71005C9.07091 8.64378 8.93008 8.5858 8.78926 8.51953C8.70642 8.48639 8.62359 8.44498 8.54075 8.40356L7.99402 8.15505C7.9029 8.11363 7.81178 8.07221 7.71238 8.03079L7.31476 7.85683C7.23192 7.8237 7.14909 7.78228 7.06625 7.74086L6.51952 7.49235C6.4284 7.45093 6.33728 7.40951 6.23788 7.36809L5.84026 7.19414C5.74914 7.15272 5.6663 7.1113 5.57518 7.06988C5.41779 6.99533 5.2604 6.92077 5.09473 6.8545C5.11958 6.84622 5.11129 6.84622 5.11129 6.84622Z" fill="#757575"/>
</svg>
