<svg width="15" height="14" viewBox="0 0 15 14" fill="none" xmlns="http://www.w3.org/2000/svg">
<path d="M12.3044 1.819L8.1403 4.9117L8.91034 3.08705L12.3044 1.819Z" fill="#242629" stroke="#E2761B" stroke-linecap="round" stroke-linejoin="round"/>
<path d="M2.69147 1.819L6.82204 4.94099L6.08967 3.08705L2.69147 1.819Z" fill="#E4761B" stroke="#E4761B" stroke-linecap="round" stroke-linejoin="round"/>
<path d="M10.8061 8.98786L9.69711 10.687L12.07 11.3398L12.7521 9.02553L10.8061 8.98786Z" fill="#E4761B" stroke="#E4761B" stroke-linecap="round" stroke-linejoin="round"/>
<path d="M2.25204 9.02553L2.93001 11.3398L5.30289 10.687L4.19387 8.98786L2.25204 9.02553Z" fill="#E4761B" stroke="#E4761B" stroke-linecap="round" stroke-linejoin="round"/>
<path d="M5.16897 6.11697L4.50774 7.11718L6.86389 7.22181L6.78019 4.6899L5.16897 6.11697Z" fill="#E4761B" stroke="#E4761B" stroke-linecap="round" stroke-linejoin="round"/>
<path d="M9.82685 6.11697L8.19471 4.6606L8.1403 7.2218L10.4923 7.11718L9.82685 6.11697Z" fill="#E4761B" stroke="#E4761B" stroke-linecap="round" stroke-linejoin="round"/>
<path d="M5.30289 10.687L6.71742 9.99644L5.4954 9.04227L5.30289 10.687Z" fill="#E4761B" stroke="#E4761B" stroke-linecap="round" stroke-linejoin="round"/>
<path d="M8.27841 9.99644L9.69712 10.687L9.50043 9.04227L8.27841 9.99644Z" fill="#E4761B" stroke="#E4761B" stroke-linecap="round" stroke-linejoin="round"/>
<path d="M9.69711 10.687L8.2784 9.99644L8.3914 10.9213L8.37884 11.3105L9.69711 10.687Z" fill="#D7C1B3" stroke="#D7C1B3" stroke-linecap="round" stroke-linejoin="round"/>
<path d="M5.30289 10.687L6.62115 11.3105L6.61278 10.9213L6.71741 9.99644L5.30289 10.687Z" fill="#D7C1B3" stroke="#D7C1B3" stroke-linecap="round" stroke-linejoin="round"/>
<path d="M6.64209 8.43127L5.46192 8.08391L6.29473 7.70308L6.64209 8.43127Z" fill="#233447" stroke="#233447" stroke-linecap="round" stroke-linejoin="round"/>
<path d="M8.35374 8.43127L8.70109 7.70308L9.53808 8.08391L8.35374 8.43127Z" fill="#233447" stroke="#233447" stroke-linecap="round" stroke-linejoin="round"/>
<path d="M5.30289 10.687L5.50377 8.98786L4.19387 9.02553L5.30289 10.687Z" fill="#CD6116" stroke="#CD6116" stroke-linecap="round" stroke-linejoin="round"/>
<path d="M9.49623 8.98786L9.69711 10.687L10.8061 9.02553L9.49623 8.98786Z" fill="#CD6116" stroke="#CD6116" stroke-linecap="round" stroke-linejoin="round"/>
<path d="M10.4923 7.11718L8.1403 7.2218L8.35792 8.43126L8.70528 7.70308L9.54227 8.08391L10.4923 7.11718Z" fill="#CD6116" stroke="#CD6116" stroke-linecap="round" stroke-linejoin="round"/>
<path d="M5.46192 8.08391L6.29891 7.70308L6.64208 8.43126L6.86389 7.2218L4.50774 7.11718L5.46192 8.08391Z" fill="#CD6116" stroke="#CD6116" stroke-linecap="round" stroke-linejoin="round"/>
<path d="M4.50774 7.11718L5.4954 9.04227L5.46192 8.08391L4.50774 7.11718Z" fill="#E4751F" stroke="#E4751F" stroke-linecap="round" stroke-linejoin="round"/>
<path d="M9.54227 8.08391L9.50042 9.04227L10.4923 7.11718L9.54227 8.08391Z" fill="#E4751F" stroke="#E4751F" stroke-linecap="round" stroke-linejoin="round"/>
<path d="M6.86389 7.2218L6.64208 8.43126L6.91829 9.85834L6.98106 7.97928L6.86389 7.2218Z" fill="#E4751F" stroke="#E4751F" stroke-linecap="round" stroke-linejoin="round"/>
<path d="M8.1403 7.2218L8.02731 7.9751L8.07753 9.85834L8.35792 8.43126L8.1403 7.2218Z" fill="#E4751F" stroke="#E4751F" stroke-linecap="round" stroke-linejoin="round"/>
<path d="M8.35792 8.43126L8.07753 9.85834L8.27841 9.99644L9.50042 9.04227L9.54227 8.08391L8.35792 8.43126Z" fill="#F6851B" stroke="#F6851B" stroke-linecap="round" stroke-linejoin="round"/>
<path d="M5.46192 8.08391L5.4954 9.04227L6.71742 9.99644L6.91829 9.85834L6.64209 8.43126L5.46192 8.08391Z" fill="#F6851B" stroke="#F6851B" stroke-linecap="round" stroke-linejoin="round"/>
<path d="M8.37884 11.3105L8.3914 10.9213L8.28677 10.8293H6.70904L6.61278 10.9213L6.62115 11.3105L5.30289 10.687L5.76323 11.0636L6.69648 11.7123H8.29933L9.23676 11.0636L9.69711 10.687L8.37884 11.3105Z" fill="#C0AD9E" stroke="#C0AD9E" stroke-linecap="round" stroke-linejoin="round"/>
<path d="M8.27841 9.99644L8.07753 9.85834H6.91829L6.71741 9.99644L6.61279 10.9213L6.70904 10.8293H8.28678L8.3914 10.9213L8.27841 9.99644Z" fill="#161616" stroke="#161616" stroke-linecap="round" stroke-linejoin="round"/>
<path d="M12.4801 5.11258L12.8359 3.40511L12.3044 1.819L8.27841 4.80707L9.82685 6.11697L12.0156 6.75727L12.5011 6.1923L12.2918 6.04164L12.6266 5.73614L12.3671 5.53526L12.7019 5.27998L12.4801 5.11258Z" fill="#763D16" stroke="#763D16" stroke-linecap="round" stroke-linejoin="round"/>
<path d="M2.16416 3.40511L2.51988 5.11258L2.2939 5.27998L2.62869 5.53526L2.37341 5.73614L2.70821 6.04164L2.49896 6.1923L2.98023 6.75727L5.16897 6.11697L6.71742 4.80707L2.69147 1.819L2.16416 3.40511Z" fill="#763D16" stroke="#763D16" stroke-linecap="round" stroke-linejoin="round"/>
<path d="M12.0156 6.75728L9.82685 6.11697L10.4923 7.11718L9.50042 9.04227L10.8061 9.02553H12.7521L12.0156 6.75728Z" fill="#F6851B" stroke="#F6851B" stroke-linecap="round" stroke-linejoin="round"/>
<path d="M5.16897 6.11697L2.98023 6.75728L2.25204 9.02553H4.19387L5.4954 9.04227L4.50775 7.11718L5.16897 6.11697Z" fill="#F6851B" stroke="#F6851B" stroke-linecap="round" stroke-linejoin="round"/>
<path d="M8.14031 7.22181L8.27841 4.80708L8.91453 3.08705H6.08967L6.71742 4.80708L6.86389 7.22181L6.91411 7.98347L6.91829 9.85834H8.07753L8.0859 7.98347L8.14031 7.22181Z" fill="#F6851B" stroke="#F6851B" stroke-linecap="round" stroke-linejoin="round"/>
</svg>
