<svg width="58" height="13" viewBox="0 0 58 13" fill="none" xmlns="http://www.w3.org/2000/svg">
<path d="M35.7786 12.8156V0.184397H37.3057V12.8156H35.7786ZM34.4073 0.184397V8.4208C34.4073 11.617 32.8802 13 30.3869 13C27.6443 13 26.3041 11.617 26.3041 8.6052V8.39007H27.5819V8.57447C27.5819 10.3877 28.2988 11.2175 30.3557 11.2175C32.4127 11.2175 33.036 10.3877 33.036 8.29787V0.184397H34.4073ZM56.1612 6.48463C56.1612 3.34988 54.7587 1.84397 52.0161 1.84397C49.2735 1.84397 47.871 3.34988 47.871 6.48463C47.871 9.61939 49.3047 11.1253 52.0161 11.1253C54.7276 11.1253 56.1612 9.65012 56.1612 6.48463ZM46.7802 6.48463C46.7802 2.52009 48.6502 0 52.3901 0C56.13 0 58 2.52009 58 6.48463C58 10.4492 56.13 13 52.3901 13C48.6502 13 46.7802 10.4799 46.7802 6.48463ZM24.4653 6.48463C24.4653 3.34988 23.0629 1.84397 20.3514 1.84397C17.64 1.84397 16.2063 3.34988 16.2063 6.48463C16.2063 9.61939 17.6088 11.1253 20.3514 11.1253C23.094 11.1253 24.4653 9.65012 24.4653 6.48463ZM14.3675 6.48463C14.3675 2.52009 16.2375 0 19.9774 0C23.7174 0 25.5873 2.52009 25.5873 6.48463C25.5873 10.4492 23.7174 13 19.9774 13C16.2375 13 14.3675 10.4799 14.3675 6.48463ZM13.2456 12.8156H11.7496V6.42317C11.7496 5.56265 10.503 5.31678 10.1913 6.14657L7.66685 12.8156H5.57872L3.05427 6.14657C2.74261 5.31678 1.49597 5.53191 1.49597 6.42317V12.8156H0V0.184397H2.24395L5.51639 8.91253C5.82805 9.77305 7.44868 9.77305 7.79151 8.91253L11.0328 0.184397H13.2456V12.8156ZM47.1542 1.50591H43.6013V12.8156H42.043V2.85816C42.043 2.21277 41.5443 1.50591 40.8898 1.50591H38.5212V0.184397H47.1542V1.50591Z" fill="#2C3335"/>
</svg>
