<svg width="14" height="14" viewBox="0 0 14 14" fill="none" xmlns="http://www.w3.org/2000/svg">
<path fill-rule="evenodd" clip-rule="evenodd" d="M7 0.333332C10.6823 0.333332 13.6667 3.31771 13.6667 7C13.6667 10.6823 10.6823 13.6667 7 13.6667C3.31771 13.6667 0.333336 10.6823 0.333336 7C0.333336 3.31771 3.31771 0.333332 7 0.333332Z" fill="#000"/>
<path d="M4.57026 5.48174C5.91141 4.17185 8.08849 4.17185 9.42964 5.48174L9.5911 5.6406C9.6588 5.7057 9.6588 5.81247 9.5911 5.87758L9.03901 6.41664C9.00516 6.45049 8.95047 6.45049 8.91662 6.41664L8.69526 6.20049C7.75776 5.28643 6.24214 5.28643 5.30464 6.20049L5.06766 6.43226C5.0338 6.46612 4.97912 6.46612 4.94526 6.43226L4.39318 5.8932C4.32547 5.8281 4.32547 5.72133 4.39318 5.65622L4.57026 5.48174ZM10.5729 6.59633L11.0651 7.07549C11.1328 7.1406 11.1328 7.24737 11.0651 7.31247L8.84891 9.47653C8.7812 9.54164 8.67183 9.54164 8.60672 9.47653L7.0338 7.94008C7.01818 7.92445 6.98953 7.92445 6.97391 7.94008L5.40099 9.47653C5.33328 9.54164 5.22391 9.54164 5.1588 9.47653L2.93484 7.31247C2.86714 7.24737 2.86714 7.1406 2.93484 7.07549L3.42703 6.59633C3.49474 6.53122 3.60412 6.53122 3.66922 6.59633L5.24214 8.13278C5.25776 8.14841 5.28641 8.14841 5.30203 8.13278L6.87495 6.59633C6.94266 6.53122 7.05203 6.53122 7.11714 6.59633L8.69005 8.13278C8.70568 8.14841 8.73433 8.14841 8.74995 8.13278L10.3229 6.59633C10.3958 6.53122 10.5052 6.53122 10.5729 6.59633Z" fill="white"/>
</svg>
