<svg width="6" height="5" viewBox="0 0 6 5" fill="none" xmlns="http://www.w3.org/2000/svg">
<path d="M0 1.764C0.0599999 0.6 0.756 0 1.692 0C2.772 0 3.108 1.02 3.9 1.02C4.524 1.02 4.776 0.588 4.848 0.0960002H5.544C5.484 1.236 4.776 1.848 3.84 1.848C2.76 1.848 2.424 0.816 1.632 0.816C0.996 0.816 0.756 1.284 0.684 1.764H0ZM0 3.996C0.0599999 2.844 0.756 2.232 1.692 2.232C2.772 2.232 3.108 3.252 3.9 3.252C4.524 3.252 4.776 2.82 4.848 2.328H5.544C5.484 3.48 4.776 4.08 3.84 4.08C2.76 4.08 2.424 3.06 1.632 3.06C0.996 3.06 0.756 3.516 0.684 3.996H0Z" fill="#757575"/>
</svg>
